<mxfile host="app.diagrams.net" modified="2020-09-12T18:44:52.362Z" agent="5.0 (Windows NT 10.0; Win64; x64) AppleWebKit/537.36 (KHTML, like Gecko) Chrome/85.0.4183.102 Safari/537.36" etag="zOSQTtPtkDBPKBgPYKf2" version="13.6.9" type="github">
  <diagram id="Z43Ltso9NqdQMZi-uYuG" name="Page-1">
    <mxGraphModel dx="1102" dy="582" grid="1" gridSize="10" guides="1" tooltips="1" connect="1" arrows="1" fold="1" page="1" pageScale="1" pageWidth="827" pageHeight="1169" math="0" shadow="0">
      <root>
        <mxCell id="0" />
        <mxCell id="1" parent="0" />
        <mxCell id="poSOEoPwNZ45NxDZziD_-3" style="edgeStyle=orthogonalEdgeStyle;rounded=0;orthogonalLoop=1;jettySize=auto;html=1;entryX=0.5;entryY=1;entryDx=0;entryDy=0;" edge="1" parent="1" source="poSOEoPwNZ45NxDZziD_-1" target="poSOEoPwNZ45NxDZziD_-2">
          <mxGeometry relative="1" as="geometry" />
        </mxCell>
        <mxCell id="poSOEoPwNZ45NxDZziD_-1" value="Airplane Controller&lt;br&gt;Global Control" style="rounded=0;whiteSpace=wrap;html=1;" vertex="1" parent="1">
          <mxGeometry x="350" y="270" width="120" height="60" as="geometry" />
        </mxCell>
        <mxCell id="poSOEoPwNZ45NxDZziD_-2" value="IP_BaseRigidbody_Controller" style="rounded=0;whiteSpace=wrap;html=1;" vertex="1" parent="1">
          <mxGeometry x="325" y="100" width="170" height="60" as="geometry" />
        </mxCell>
        <mxCell id="poSOEoPwNZ45NxDZziD_-5" style="edgeStyle=orthogonalEdgeStyle;rounded=0;orthogonalLoop=1;jettySize=auto;html=1;" edge="1" parent="1" source="poSOEoPwNZ45NxDZziD_-4" target="poSOEoPwNZ45NxDZziD_-1">
          <mxGeometry relative="1" as="geometry" />
        </mxCell>
        <mxCell id="poSOEoPwNZ45NxDZziD_-4" value="Airplane Input" style="rounded=0;whiteSpace=wrap;html=1;fillColor=#d5e8d4;strokeColor=#82b366;" vertex="1" parent="1">
          <mxGeometry x="120" y="270" width="120" height="60" as="geometry" />
        </mxCell>
        <mxCell id="poSOEoPwNZ45NxDZziD_-6" value="IP_Airplane_Menus" style="rounded=0;whiteSpace=wrap;html=1;" vertex="1" parent="1">
          <mxGeometry x="580" y="270" width="120" height="60" as="geometry" />
        </mxCell>
      </root>
    </mxGraphModel>
  </diagram>
</mxfile>
